<svg width="62" height="61" viewBox="0 0 62 61" fill="none" xmlns="http://www.w3.org/2000/svg">
<path d="M0 29C0 12.9837 12.9837 0 29 0H33C49.0163 0 62 12.9837 62 29V32C62 48.0163 49.0163 61 33 61H29C12.9837 61 0 48.0163 0 32V29Z" fill="#EECD4A"/>
<path d="M27.7923 18.1963C25.2478 18.1963 22.8074 19.2071 21.0082 21.0063C19.2089 22.8056 18.1981 25.2459 18.1981 27.7905C18.1981 30.335 19.2089 32.7754 21.0082 34.5746C22.8074 36.3739 25.2478 37.3847 27.7923 37.3847C30.3369 37.3847 32.7772 36.3739 34.5765 34.5746C36.3757 32.7754 37.3866 30.335 37.3866 27.7905C37.3866 25.2459 36.3757 22.8056 34.5765 21.0063C32.7772 19.2071 30.3369 18.1963 27.7923 18.1963ZM15 27.7905C15.0003 25.7547 15.4865 23.7484 16.4181 21.9382C17.3497 20.1281 18.6999 18.5665 20.3565 17.3831C22.013 16.1998 23.9281 15.4288 25.9425 15.1345C27.9569 14.8401 30.0125 15.0307 31.9384 15.6905C33.8643 16.3503 35.6049 17.4603 37.0156 18.9281C38.4263 20.3959 39.4663 22.1792 40.0491 24.1298C40.632 26.0804 40.7409 28.1419 40.3668 30.143C39.9927 32.1441 39.1464 34.0271 37.8983 35.6354L46.5123 44.2494C46.8036 44.551 46.9647 44.9549 46.9611 45.3742C46.9575 45.7934 46.7893 46.1945 46.4928 46.491C46.1963 46.7875 45.7953 46.9556 45.376 46.9593C44.9568 46.9629 44.5528 46.8017 44.2512 46.5105L35.6372 37.8964C33.7463 39.3645 31.4813 40.2725 29.1 40.5172C26.7186 40.7619 24.3163 40.3335 22.1663 39.2807C20.0164 38.2279 18.2049 36.5929 16.9381 34.5616C15.6712 32.5304 14.9997 30.1844 15 27.7905Z" fill="#0D0D0D"/>
</svg>
