<svg width="20" height="20" viewBox="0 0 20 20" fill="none" xmlns="http://www.w3.org/2000/svg">
<path d="M5.18763 16.646L2.34596 16.0731C2.17791 16.0426 2.03659 15.9547 1.92201 15.8096C1.80742 15.6644 1.76541 15.5002 1.79596 15.3169L2.1168 12.5669L0.30638 10.4585C0.184158 10.3363 0.123047 10.1835 0.123047 10.0002C0.123047 9.81686 0.184158 9.66408 0.30638 9.54186L2.1168 7.45645L1.79596 4.70645C1.76541 4.52311 1.80742 4.35888 1.92201 4.21374C2.03659 4.0686 2.17791 3.98075 2.34596 3.9502L5.18763 3.37728L6.60846 0.925195C6.70013 0.772418 6.82999 0.665473 6.99805 0.604362C7.1661 0.543251 7.33416 0.55089 7.50221 0.627279L10.0001 1.79603L12.498 0.627279C12.6661 0.55089 12.838 0.535612 13.0137 0.581445C13.1894 0.627279 13.3154 0.734223 13.3918 0.902279L14.8355 3.37728L17.6543 3.9502C17.8224 3.98075 17.9637 4.0686 18.0783 4.21374C18.1928 4.35888 18.2349 4.52311 18.2043 4.70645L17.8835 7.45645L19.6939 9.54186C19.8161 9.66408 19.8772 9.81686 19.8772 10.0002C19.8772 10.1835 19.8161 10.3363 19.6939 10.4585L17.8835 12.5669L18.2043 15.3169C18.2349 15.5002 18.1928 15.6644 18.0783 15.8096C17.9637 15.9547 17.8224 16.0426 17.6543 16.0731L14.8355 16.646L13.3918 19.0981C13.3154 19.2662 13.1894 19.3731 13.0137 19.4189C12.838 19.4648 12.6661 19.4495 12.498 19.3731L10.0001 18.2044L7.50221 19.3731C7.33416 19.4495 7.1661 19.4571 6.99805 19.396C6.82999 19.3349 6.70013 19.228 6.60846 19.0752L5.18763 16.646ZM8.53346 12.5669C8.67096 12.7044 8.83138 12.7731 9.01471 12.7731C9.19805 12.7731 9.35846 12.7044 9.49596 12.5669L13.7355 8.37311C13.8578 8.25089 13.9151 8.09429 13.9074 7.90332C13.8998 7.71235 13.8272 7.54811 13.6897 7.41061C13.5522 7.27311 13.388 7.20818 13.197 7.21582C13.006 7.22346 12.8342 7.29603 12.6814 7.43353L9.01471 11.0773L7.3418 9.3127C7.2043 9.15992 7.03242 9.08735 6.82617 9.09499C6.61992 9.10263 6.44805 9.18283 6.31055 9.33561C6.17305 9.48839 6.10048 9.66408 6.09284 9.8627C6.0852 10.0613 6.15777 10.2294 6.31055 10.3669L8.53346 12.5669Z" fill="#4C9EFF"/>
</svg>
