<svg width="10" height="40" viewBox="0 0 10 40" fill="none" xmlns="http://www.w3.org/2000/svg">
<path d="M0 20C0 21.3261 0.526785 22.5979 1.46447 23.5355C2.40215 24.4732 3.67392 25 5 25C6.32608 25 7.59785 24.4732 8.53553 23.5355C9.47322 22.5979 10 21.3261 10 20C10 18.6739 9.47322 17.4021 8.53553 16.4645C7.59785 15.5268 6.32608 15 5 15C3.67392 15 2.40215 15.5268 1.46447 16.4645C0.526785 17.4021 0 18.6739 0 20ZM0 5C0 6.32608 0.526785 7.59785 1.46447 8.53553C2.40215 9.47322 3.67392 10 5 10C6.32608 10 7.59785 9.47322 8.53553 8.53553C9.47322 7.59785 10 6.32608 10 5C10 3.67392 9.47322 2.40215 8.53553 1.46447C7.59785 0.526784 6.32608 0 5 0C3.67392 0 2.40215 0.526784 1.46447 1.46447C0.526785 2.40215 0 3.67392 0 5ZM0 35C0 36.3261 0.526785 37.5979 1.46447 38.5355C2.40215 39.4732 3.67392 40 5 40C6.32608 40 7.59785 39.4732 8.53553 38.5355C9.47322 37.5979 10 36.3261 10 35C10 33.6739 9.47322 32.4021 8.53553 31.4645C7.59785 30.5268 6.32608 30 5 30C3.67392 30 2.40215 30.5268 1.46447 31.4645C0.526785 32.4021 0 33.6739 0 35Z" fill="#0D0D0D"/>
</svg>
