<svg width="39" height="39" viewBox="0 0 39 39" fill="none" xmlns="http://www.w3.org/2000/svg">
<circle cx="19.5" cy="19.5" r="19.5" transform="rotate(-180 19.5 19.5)" fill="#D9D9D9"/>
<path d="M11.2396 28.304C11.0011 28.0654 10.8671 27.7419 10.8671 27.4046C10.8671 27.0673 11.0011 26.7438 11.2396 26.5052L17.973 19.7718L11.2396 13.0384C11.1181 12.921 11.0212 12.7806 10.9545 12.6254C10.8878 12.4702 10.8527 12.3033 10.8512 12.1344C10.8498 11.9655 10.882 11.798 10.9459 11.6416C11.0099 11.4853 11.1044 11.3432 11.2238 11.2238C11.3432 11.1043 11.4853 11.0099 11.6416 10.9459C11.798 10.882 11.9655 10.8498 12.1344 10.8512C12.3033 10.8527 12.4702 10.8878 12.6254 10.9545C12.7806 11.0211 12.921 11.1181 13.0384 11.2396L20.6712 18.8724C20.9097 19.1109 21.0437 19.4345 21.0437 19.7718C21.0437 20.1091 20.9097 20.4326 20.6712 20.6712L13.0384 28.304C12.7998 28.5425 12.4763 28.6765 12.139 28.6765C11.8016 28.6765 11.4781 28.5425 11.2396 28.304ZM18.8724 28.304C18.6339 28.0655 18.4999 27.7419 18.4999 27.4046C18.4999 27.0673 18.6339 26.7438 18.8724 26.5052L25.6058 19.7718L18.8724 13.0384C18.6407 12.7984 18.5124 12.4771 18.5153 12.1435C18.5182 11.81 18.652 11.4909 18.8879 11.2551C19.1238 11.0192 19.4428 10.8854 19.7764 10.8825C20.1099 10.8796 20.4313 11.0078 20.6712 11.2396L28.304 18.8724C28.5425 19.1109 28.6765 19.4345 28.6765 19.7718C28.6765 20.1091 28.5425 20.4326 28.304 20.6712L20.6712 28.304C20.4326 28.5425 20.1091 28.6765 19.7718 28.6765C19.4345 28.6765 19.111 28.5425 18.8724 28.304Z" fill="#0D0D0D"/>
</svg>
