<svg width="39" height="39" viewBox="0 0 39 39" fill="none" xmlns="http://www.w3.org/2000/svg">
<circle cx="19.5" cy="19.5" r="19.5" fill="#D9D9D9"/>
<path d="M27.7605 10.696C27.9989 10.9346 28.1329 11.2581 28.1329 11.5954C28.1329 11.9327 27.9989 12.2562 27.7604 12.4948L21.027 19.2282L27.7604 25.9616C27.882 26.079 27.9789 26.2194 28.0455 26.3746C28.1122 26.5298 28.1473 26.6967 28.1488 26.8656C28.1502 27.0345 28.1181 27.202 28.0541 27.3584C27.9901 27.5147 27.8957 27.6568 27.7762 27.7762C27.6568 27.8957 27.5147 27.9901 27.3584 28.0541C27.2021 28.118 27.0345 28.1502 26.8656 28.1488C26.6967 28.1473 26.5298 28.1122 26.3746 28.0455C26.2194 27.9789 26.079 27.8819 25.9616 27.7604L18.3288 20.1276C18.0903 19.8891 17.9564 19.5655 17.9564 19.2282C17.9564 18.8909 18.0903 18.5674 18.3288 18.3288L25.9616 10.696C26.2002 10.4575 26.5237 10.3235 26.861 10.3235C27.1984 10.3235 27.5219 10.4575 27.7605 10.696ZM20.1276 10.696C20.3661 10.9346 20.5001 11.2581 20.5001 11.5954C20.5001 11.9327 20.3661 12.2562 20.1276 12.4948L13.3942 19.2282L20.1276 25.9616C20.3594 26.2016 20.4876 26.5229 20.4847 26.8565C20.4818 27.19 20.348 27.5091 20.1121 27.7449C19.8763 27.9808 19.5572 28.1146 19.2236 28.1175C18.8901 28.1204 18.5687 27.9922 18.3288 27.7604L10.696 20.1276C10.4575 19.8891 10.3235 19.5655 10.3235 19.2282C10.3235 18.8909 10.4575 18.5674 10.696 18.3288L18.3288 10.696C18.5674 10.4575 18.8909 10.3235 19.2282 10.3235C19.5655 10.3235 19.8891 10.4575 20.1276 10.696Z" fill="#0D0D0D"/>
</svg>
