<svg width="48" height="53" viewBox="0 0 48 53" fill="none" xmlns="http://www.w3.org/2000/svg">
<path d="M41.8 16.3H6.1C3.28335 16.3 1 18.5833 1 21.4V46.9C1 49.7166 3.28335 52 6.1 52H41.8C44.6167 52 46.9 49.7166 46.9 46.9V21.4C46.9 18.5833 44.6167 16.3 41.8 16.3Z" stroke="black" stroke-width="2" stroke-linecap="round" stroke-linejoin="round"/>
<path d="M23.95 8.65C23.95 4.42503 20.5251 1 16.3 1C12.075 1 8.65 4.42503 8.65 8.65C8.65 12.875 12.075 16.3 16.3 16.3" stroke="black" stroke-width="2" stroke-linecap="round" stroke-linejoin="round"/>
<path d="M31.6 16.3C35.8251 16.3 39.25 12.875 39.25 8.65C39.25 4.42503 35.8251 1 31.6 1C27.3749 1 23.95 4.42503 23.95 8.65" stroke="black" stroke-width="2" stroke-linecap="round" stroke-linejoin="round"/>
<path d="M23.95 8.65V52" stroke="black" stroke-width="2" stroke-linecap="round" stroke-linejoin="round"/>
<path d="M46.9 34.15H1" stroke="black" stroke-width="2" stroke-linecap="round" stroke-linejoin="round"/>
</svg>
