<svg width="25" height="26" viewBox="0 0 25 26" fill="none" xmlns="http://www.w3.org/2000/svg">
<path d="M16.5409 25.0838C17.0497 25.0838 17.4622 24.6713 17.4622 24.1625C17.4622 23.6537 17.0497 23.2412 16.5409 23.2412C16.0321 23.2412 15.6196 23.6537 15.6196 24.1625C15.6196 24.6713 16.0321 25.0838 16.5409 25.0838Z" fill="#FFC841"/>
<path d="M21.0634 25.0838C21.5722 25.0838 21.9846 24.6713 21.9846 24.1625C21.9846 23.6537 21.5722 23.2412 21.0634 23.2412C20.5546 23.2412 20.1421 23.6537 20.1421 24.1625C20.1421 24.6713 20.5546 25.0838 21.0634 25.0838Z" fill="#FFC841"/>
<path d="M7.57956 10.0921C6.95142 9.0871 6.57454 7.91457 6.57454 6.61641C6.57454 4.43886 7.49581 2.59631 8.96147 1.50754C8.41708 0.586265 7.49581 0 6.19765 0C4.06198 0 2.88945 1.71692 2.88945 3.68509C2.88945 4.77387 3.26633 5.65327 3.97822 6.32328C4.39699 6.70017 4.73199 7.1608 4.73199 7.70519C4.73199 8.20771 4.56449 8.66834 3.35008 9.17085C1.63317 9.9665 0.041876 10.9296 0 12.5628C0 13.6516 0.711892 14.4054 1.71692 14.4054H3.30821C3.55946 14.4054 3.81072 14.2379 3.93635 14.0285C4.73199 12.6466 6.15578 11.7253 7.37018 11.139C7.66332 10.9296 7.83082 10.4271 7.57956 10.0921Z" fill="#FFC841"/>
<path d="M16.4157 19.8495H21.9852C22.1528 19.8495 22.3203 19.7239 22.3203 19.5564L23.3253 15.955C23.409 15.7038 23.1997 15.4944 22.9903 15.4944H17.0858H14.4057L14.2801 14.95C14.1963 14.6988 13.9869 14.5312 13.7357 14.5312H12.8144C12.5213 14.5312 12.2281 14.7825 12.2281 15.0756C12.1863 15.4106 12.4794 15.6619 12.7725 15.6619H13.3169L13.8194 17.3369L15.0757 21.6502C15.1595 21.9014 15.3688 22.0689 15.6201 22.0689H22.1528C22.4459 22.0689 22.739 21.8177 22.739 21.5245C22.7809 21.1895 22.4878 20.9383 22.1946 20.9383H16.4157C16.1645 20.9383 15.9551 20.7708 15.8713 20.5614V20.5195C15.7876 20.1845 16.0389 19.8495 16.4157 19.8495Z" fill="#FFC841"/>
<path d="M12.2278 17.8394L12.0603 17.2113C11.6834 17.0857 11.3902 16.8763 11.139 16.5832C10.7621 16.1225 10.5527 15.5781 10.5946 14.9919C10.6365 13.8193 11.6834 12.8981 12.8559 12.8981H13.7353C14.4891 12.8981 15.1591 13.275 15.5779 13.8612H17.0854H17.9648C17.2948 13.4006 16.4991 13.0237 15.7035 12.6887C14.3634 12.1443 14.1959 11.5999 14.1959 11.0555C14.1959 10.5111 14.5728 9.96675 14.9916 9.54799C15.7872 8.83609 16.206 7.83107 16.206 6.61666C16.206 4.43911 14.866 2.55469 12.5209 2.55469C10.1758 2.55469 8.83581 4.43911 8.83581 6.61666C8.83581 7.78919 9.29644 8.79422 10.0502 9.54799C10.5108 9.96675 10.8459 10.5111 10.8459 11.0555C10.8459 11.5999 10.6365 12.1443 9.33832 12.6887C7.32827 13.4843 5.48572 14.4475 5.44385 16.2482C5.44385 17.4207 6.28137 18.4676 7.41202 18.4676H12.3534L12.2278 17.8394Z" fill="#FFC841"/>
<path d="M18.3836 6.61641C18.3836 7.91457 18.0486 9.0871 17.3786 10.0921C17.1274 10.469 17.253 10.9296 17.6717 11.1809C18.8443 11.7253 20.1843 12.5628 20.9799 13.861H22.99C23.4088 13.861 23.7856 13.9866 24.1207 14.2379C24.665 13.9447 25 13.3585 25 12.6047C24.9582 10.9715 23.3669 9.9665 21.65 9.17085C20.4356 8.66834 20.2681 8.16583 20.2681 7.70519C20.2681 7.20268 20.6031 6.70017 21.0218 6.32328C21.7337 5.65327 22.1106 4.77387 22.1106 3.68509C22.1106 1.67504 20.9381 0 18.8024 0C17.5042 0 16.583 0.586265 16.0386 1.50754C17.4624 2.59631 18.3836 4.39698 18.3836 6.61641Z" fill="#FFC841"/>
</svg>
