<svg width="25" height="25" viewBox="0 0 25 25" fill="none" xmlns="http://www.w3.org/2000/svg">
<path d="M22.4999 0H2.50009C1.83024 0.0062287 1.1909 0.218805 0.722253 0.591119C0.25361 0.963433 -0.00608543 1.4651 0.0001083 1.98611V23.0139C-0.00608543 23.5349 0.25361 24.0366 0.722253 24.4089C1.1909 24.7812 1.83024 24.9938 2.50009 25H22.4999C23.1698 24.9938 23.8091 24.7812 24.2777 24.4089C24.7464 24.0366 25.0061 23.5349 24.9999 23.0139V1.98611C25.0061 1.4651 24.7464 0.963433 24.2777 0.591119C23.8091 0.218805 23.1698 0.0062287 22.4999 0ZM3.57151 4.31944C3.57151 3.91425 3.77846 3.52566 4.14683 3.23914C4.5152 2.95263 5.01482 2.79167 5.53577 2.79167H8.75003C9.27099 2.79167 9.77061 2.95263 10.139 3.23914C10.5074 3.52566 10.7143 3.91425 10.7143 4.31944V9.61111C10.7143 10.0163 10.5074 10.4049 10.139 10.6914C9.77061 10.9779 9.27099 11.1389 8.75003 11.1389H5.52685C5.00744 11.1371 4.51011 10.9753 4.14367 10.689C3.77722 10.4026 3.5715 10.0151 3.57151 9.61111V4.31944ZM8.9286 22.2222H5.3572C4.88361 22.2222 4.42941 22.0759 4.09453 21.8154C3.75964 21.555 3.57151 21.2017 3.57151 20.8333C3.57151 20.465 3.75964 20.1117 4.09453 19.8512C4.42941 19.5908 4.88361 19.4444 5.3572 19.4444H8.9286C9.4022 19.4444 9.8564 19.5908 10.1913 19.8512C10.5262 20.1117 10.7143 20.465 10.7143 20.8333C10.7143 21.2017 10.5262 21.555 10.1913 21.8154C9.8564 22.0759 9.4022 22.2222 8.9286 22.2222ZM19.6428 22.2222H16.0714C15.5978 22.2222 15.1436 22.0759 14.8087 21.8154C14.4738 21.555 14.2857 21.2017 14.2857 20.8333C14.2857 20.465 14.4738 20.1117 14.8087 19.8512C15.1436 19.5908 15.5978 19.4444 16.0714 19.4444H19.6428C20.1164 19.4444 20.5706 19.5908 20.9055 19.8512C21.2404 20.1117 21.4285 20.465 21.4285 20.8333C21.4285 21.2017 21.2404 21.555 20.9055 21.8154C20.5706 22.0759 20.1164 22.2222 19.6428 22.2222ZM21.4285 15.5333C21.4276 15.8337 21.2737 16.1215 21.0007 16.3339C20.7276 16.5463 20.3575 16.6659 19.9714 16.6667H5.02864C4.64247 16.6659 4.27239 16.5463 3.99933 16.3339C3.72627 16.1215 3.57245 15.8337 3.57151 15.5333V15.0236C3.57198 14.723 3.72559 14.4348 3.9987 14.2221C4.27181 14.0095 4.64216 13.8896 5.02864 13.8889H19.9696C20.3561 13.8893 20.7266 14.0087 21 14.2212C21.2735 14.4336 21.4276 14.7216 21.4285 15.0222V15.5333ZM19.6428 11.1111H16.0714C15.5978 11.1111 15.1436 10.9648 14.8087 10.7043C14.4738 10.4438 14.2857 10.0906 14.2857 9.72222C14.2857 9.35387 14.4738 9.0006 14.8087 8.74013C15.1436 8.47966 15.5978 8.33333 16.0714 8.33333H19.6428C20.1164 8.33333 20.5706 8.47966 20.9055 8.74013C21.2404 9.0006 21.4285 9.35387 21.4285 9.72222C21.4285 10.0906 21.2404 10.4438 20.9055 10.7043C20.5706 10.9648 20.1164 11.1111 19.6428 11.1111ZM19.6428 5.55556H16.0714C15.5978 5.55556 15.1436 5.40923 14.8087 5.14876C14.4738 4.88829 14.2857 4.53502 14.2857 4.16667C14.2857 3.79831 14.4738 3.44504 14.8087 3.18457C15.1436 2.92411 15.5978 2.77778 16.0714 2.77778H19.6428C20.1164 2.77778 20.5706 2.92411 20.9055 3.18457C21.2404 3.44504 21.4285 3.79831 21.4285 4.16667C21.4285 4.53502 21.2404 4.88829 20.9055 5.14876C20.5706 5.40923 20.1164 5.55556 19.6428 5.55556Z" fill="#FFC841"/>
</svg>
