<svg width="25" height="25" viewBox="0 0 25 25" fill="none" xmlns="http://www.w3.org/2000/svg">
<path d="M11.2763 0.0272781C12.088 -0.092382 12.9659 0.18298 13.6099 0.826934L24.1731 11.4084C25.2304 12.4657 25.2828 14.1433 24.2784 15.1477L15.1477 24.2784C14.1433 25.2828 12.4657 25.2304 11.4084 24.1731L0.826934 13.6099C0.18298 12.9659 -0.092382 12.088 0.0272781 11.2763L1.39809 1.82118C1.42987 1.60202 1.60202 1.42987 1.82118 1.39809L11.2763 0.0272781ZM6.56957 11.486C7.92158 12.838 10.134 12.838 11.486 11.486C12.838 10.134 12.838 7.92158 11.486 6.56957C10.134 5.21755 7.92158 5.21755 6.56957 6.56957C5.21755 7.92158 5.21755 10.134 6.56957 11.486Z" fill="#FFC841"/>
</svg>
