<svg width="23" height="24" viewBox="0 0 23 24" fill="none" xmlns="http://www.w3.org/2000/svg">
<path d="M22.3694 8.81329C22.5199 9.34017 22.6375 9.88587 22.7222 10.4504C22.8069 11.0149 22.8492 11.5888 22.8492 12.1722C22.8492 13.7716 22.5575 15.2582 21.9742 16.6318C21.3909 18.0055 20.5911 19.2004 19.575 20.2165C18.5589 21.2326 17.364 22.0277 15.9903 22.6016C14.6167 23.1755 13.1395 23.4625 11.5589 23.4625C9.95941 23.4625 8.47286 23.1755 7.0992 22.6016C5.72554 22.0277 4.53065 21.2326 3.51452 20.2165C2.49839 19.2004 1.70337 18.0055 1.12944 16.6318C0.555517 15.2582 0.268555 13.7716 0.268555 12.1722C0.268555 10.5915 0.555517 9.11436 1.12944 7.74071C1.70337 6.36705 2.49839 5.17216 3.51452 4.15603C4.53065 3.1399 5.72554 2.34017 7.0992 1.75684C8.47286 1.1735 9.95941 0.881836 11.5589 0.881836C12.782 0.881836 13.9345 1.0606 15.0165 1.41813C16.0985 1.77565 17.11 2.25549 18.0508 2.85764C18.2578 2.98936 18.3754 3.16813 18.4036 3.39393C18.4319 3.61974 18.3707 3.82673 18.2202 4.0149C18.0696 4.20307 17.8815 4.31598 17.6557 4.35361C17.4298 4.39124 17.2134 4.3442 17.0065 4.21248C16.2161 3.72323 15.3647 3.32807 14.452 3.027C13.5394 2.72592 12.575 2.57538 11.5589 2.57538C8.83038 2.57538 6.5488 3.49272 4.71412 5.3274C2.87944 7.16208 1.9621 9.44366 1.9621 12.1722C1.9621 14.9007 2.87944 17.1822 4.71412 19.0169C6.5488 20.8516 8.83038 21.7689 11.5589 21.7689C14.2874 21.7689 16.569 20.8516 18.4036 19.0169C20.2383 17.1822 21.1557 14.9007 21.1557 12.1722C21.1557 11.7017 21.1274 11.2501 21.071 10.8173C21.0145 10.3845 20.9298 9.95173 20.8169 9.51893C20.7605 9.29313 20.7746 9.06732 20.8593 8.84151C20.944 8.61571 21.0898 8.45576 21.2968 8.36167C21.5038 8.26759 21.7155 8.25818 21.9319 8.33345C22.1483 8.40872 22.2941 8.56866 22.3694 8.81329ZM9.30081 16.7165L5.85726 13.2447C5.68791 13.0754 5.60323 12.8684 5.60323 12.6238C5.60323 12.3791 5.69732 12.1627 5.88549 11.9746C6.05484 11.8052 6.26183 11.7205 6.50646 11.7205C6.75108 11.7205 6.96748 11.8052 7.15565 11.9746L9.89355 14.7407L20.9581 3.67619C21.1274 3.50684 21.3344 3.41745 21.579 3.40805C21.8237 3.39864 22.0401 3.48802 22.2282 3.67619C22.4164 3.86436 22.5105 4.08076 22.5105 4.32538C22.5105 4.57001 22.4164 4.78641 22.2282 4.97458L10.4863 16.7165C10.3169 16.8859 10.1147 16.9705 9.87944 16.9705C9.64423 16.9705 9.45135 16.8859 9.30081 16.7165Z" fill="#FFC841"/>
</svg>
