<svg width="154" height="147" viewBox="0 0 154 147" fill="none" xmlns="http://www.w3.org/2000/svg">
<path d="M68.5227 144.047C59.1697 148.375 47.9046 144.959 42.7034 136.062L42.1283 135.078C39.2623 130.176 34.4472 126.723 28.8845 125.581L27.2632 125.248C17.1056 123.162 10.2264 113.66 11.4177 103.359L11.4962 102.68C12.1362 97.1457 10.4392 91.5957 6.81379 87.3661L5.70658 86.0743C-0.735122 78.559 -0.710519 67.4622 5.76445 59.9755L6.74985 58.8361C10.4141 54.5993 12.1337 49.02 11.4902 43.4555L11.4177 42.8288C10.2264 32.528 17.1056 23.0251 27.2632 20.9398L28.8453 20.615C34.4308 19.4683 39.2613 15.992 42.1227 11.0599L42.7252 10.0214C47.9095 1.08527 59.1653 -2.37686 68.5415 1.96137C73.8691 4.42637 80.0708 4.4542 85.3983 1.9892L85.6714 1.86287C95.0079 -2.45703 106.099 1.01056 111.312 9.87948L112.063 11.158C114.928 16.0317 119.721 19.4653 125.258 20.6095L126.765 20.9211C136.91 23.0177 143.775 32.514 142.585 42.8048L142.51 43.4555C141.866 49.02 143.586 54.5993 147.25 58.8361L148.236 59.9755C154.711 67.4622 154.735 78.559 148.293 86.0743L147.186 87.3661C143.561 91.5957 141.864 97.1457 142.504 102.68L142.585 103.383C143.775 113.674 136.91 123.17 126.765 125.266L125.218 125.586C119.705 126.726 114.927 130.136 112.058 134.98L111.333 136.204C106.103 145.033 95.04 148.472 85.7267 144.163L85.3983 144.011C80.0708 141.546 73.8503 141.582 68.5227 144.047ZM55.8677 84.9604C63.1028 92.1441 74.7773 92.1492 82.0186 84.9717L107.238 59.9743C109.556 57.6769 109.477 53.9065 107.064 51.7086C104.821 49.6649 101.371 49.7356 99.2134 51.8694L78.1083 72.7425C73.0659 77.7294 64.9172 77.6229 60.0069 72.5059L55.2918 67.5922C52.997 65.2009 49.1922 65.1407 46.8231 67.4584C44.4458 69.784 44.4316 73.6054 46.7916 75.9486L55.8677 84.9604Z" fill="#B7782F"/>
</svg>
