<svg width="28" height="28" viewBox="0 0 28 28" fill="none" xmlns="http://www.w3.org/2000/svg">
<circle cx="14" cy="14" r="13.5" fill="url(#paint0_linear_1320_13)" stroke="black"/>
<path d="M14.017 16.8125C13.7614 16.8125 13.5586 16.7125 13.4086 16.5125C13.2586 16.3125 13.2003 16.0687 13.2336 15.7812C13.2892 15.3312 13.4086 14.9312 13.592 14.5812C13.7753 14.2312 14.0558 13.8687 14.4336 13.4937C14.9003 13.0187 15.2586 12.5781 15.5086 12.1719C15.7586 11.7656 15.8836 11.3312 15.8836 10.8687C15.8836 10.3062 15.717 9.8375 15.3836 9.4625C15.0503 9.0875 14.5836 8.9 13.9836 8.9C13.5725 8.9 13.2308 8.99375 12.9586 9.18125C12.6864 9.36875 12.467 9.6 12.3003 9.875C12.1781 10.075 12.0225 10.2125 11.8336 10.2875C11.6447 10.3625 11.4614 10.3563 11.2836 10.2688C11.0614 10.1688 10.9253 9.9875 10.8753 9.725C10.8253 9.4625 10.8614 9.225 10.9836 9.0125C11.2947 8.5 11.7031 8.07812 12.2086 7.74687C12.7142 7.41562 13.3058 7.25 13.9836 7.25C15.0947 7.25 15.9503 7.59687 16.5503 8.29062C17.1503 8.98437 17.4503 9.81875 17.4503 10.7937C17.4503 11.3937 17.3364 11.9375 17.1086 12.425C16.8808 12.9125 16.517 13.425 16.017 13.9625C15.6281 14.3875 15.3558 14.7312 15.2003 14.9937C15.0447 15.2562 14.9447 15.5562 14.9003 15.8937C14.867 16.1562 14.767 16.375 14.6003 16.55C14.4336 16.725 14.2392 16.8125 14.017 16.8125ZM13.9836 21.5C13.6614 21.5 13.3864 21.3719 13.1586 21.1156C12.9308 20.8594 12.817 20.55 12.817 20.1875C12.817 19.825 12.9308 19.5156 13.1586 19.2594C13.3864 19.0031 13.6614 18.875 13.9836 18.875C14.3058 18.875 14.5808 19.0031 14.8086 19.2594C15.0364 19.5156 15.1503 19.825 15.1503 20.1875C15.1503 20.55 15.0364 20.8594 14.8086 21.1156C14.5808 21.3719 14.3058 21.5 13.9836 21.5Z" fill="white"/>
<defs>
<linearGradient id="paint0_linear_1320_13" x1="29.1053" y1="14" x2="1.47368" y2="14" gradientUnits="userSpaceOnUse">
<stop stop-color="#00A5F6"/>
<stop offset="1" stop-color="#00EF92"/>
</linearGradient>
</defs>
</svg>
